<svg xmlns="http://www.w3.org/2000/svg" xmlns:xlink="http://www.w3.org/1999/xlink" viewBox="0 0 38 65" version="1.1" x="0px" y="0px"><title>wine</title><desc>Created with Sketch.</desc><g stroke="none" stroke-width="1" fill="none" fill-rule="evenodd"><g transform="translate(-371.000000, -788.000000)" fill="#000000"><g transform="translate(371.000000, 788.000000)"><path d="M7,16 L6.99818512,16 C4.23633039,16 2,18.2396887 2,21.0053227 L2,50 L14,50 L14,21.0053227 C14,18.2329992 11.7665117,16 9.00181488,16 L9,16 L9,2 L7,2 L7,16 Z M11,14.2886233 C13.8934814,15.1471916 16,17.8242507 16,21.0053227 L16,51 C16,51.5522847 15.5522847,52 15,52 L1,52 C0.44771525,52 -8.8817842e-16,51.5522847 0,51 L4.74065232e-14,21.0053227 C5.24162499e-14,17.8306454 2.10754848,15.1498527 5,14.2894382 L5,1.05555556 C5,0.47258832 5.44771525,4.4408921e-14 6,4.4408921e-14 L10,4.4408921e-14 C10.5522847,4.4408921e-14 11,0.47258832 11,1.05555556 L11,14.2886233 Z"/><path d="M30,44 C34.418278,44 38,40.418278 38,36 C38,33.4773847 37.0273805,29.7210874 35.7345802,28.3214781 C33.9783874,26.6950284 26.0216126,26.6950284 24.3214781,28.2654198 C22.9726195,29.7210874 22,33.4773847 22,36 C22,40.418278 25.581722,44 30,44 L30,44 Z M30,42 C26.6862915,42 24,39.3137085 24,36 C24,33.9325383 24.8548996,30.6308802 25.7345802,29.6785219 C26.6123941,28.871975 33.3876059,28.871975 34.3214781,29.7345802 C35.1451004,30.6308802 36,33.9325383 36,36 C36,39.3137085 33.3137085,42 30,42 L30,42 Z"/><path d="M31,50 L34,50 C34.5522847,50 35,50.4477153 35,51 C35,51.5522847 34.5522847,52 34,52 L26,52 C25.4477153,52 25,51.5522847 25,51 C25,50.4477153 25.4477153,50 26,50 L29,50 L29,43 C29,42.4477153 29.4477153,42 30,42 C30.5522847,42 31,42.4477153 31,43 L31,50 L31,50 Z"/></g></g></g><text x="0" y="67" fill="#000000" font-size="5px" font-weight="bold" font-family="'Helvetica Neue', Helvetica, Arial-Unicode, Arial, Sans-serif">Created by Andrejs Kirma</text><text x="0" y="72" fill="#000000" font-size="5px" font-weight="bold" font-family="'Helvetica Neue', Helvetica, Arial-Unicode, Arial, Sans-serif">from the Noun Project</text></svg>